# xmcd
#
# Track frame offsets:
#	150
#	13762
#	30477
#	45121
#	59315
#	72891
#	89318
#	102693
#	118207
#	132999
#	148443
#	161997
#	175268
#	191740
#	204511
#	218975
#	234577
#	250288
#
# Disc length: 3529 seconds
#
# Revision: 1
# Processed by: cddbd v1.5.2PL0 Copyright (c) Steve Scherf et al.
# Submitted via: audiograbber 1.83.01
#
DISCID=120dc712
DTITLE=Various Artist - Schwing- und Älplerhits 2016 CD2 4306
DYEAR=1900
DGENRE=
TTITLE0=Andreas Gabalier - Hulapalu
TTITLE1=DJ Ötzi and Nik P. - Geboren Um Dich Zu Lieben
TTITLE2=Franz Arnold's Wiudä Bärg - Buir
TTITLE3=Chuelee - Uf De Alpe Obe
TTITLE4=Oesch Die Dritten - Ziggi U Zaggi
TTITLE5=Dr Eidgenoss - Älplerchilbi
TTITLE6=Voxxclub - Geiles Himmelblau
TTITLE7=Beatrice Egli - Kick Im Augenblick
TTITLE8=Alex Constanzo Feat. Schwarzbueb - Tanz Mit Mir
TTITLE9=Fantasy - Wenn Du Mir In Die Augen Schaust
TTITLE10=Calimeros - Warum Hab Ich Dich Verloren
TTITLE11=Francine Jordi - Bliib No Chli Bi Mir
TTITLE12=Matthias Reim - Mein Leben Ist Rock'n'Roll
TTITLE13=Piero Esteriore - Nume No Meh
TTITLE14=Vanessa May - Ich Sterb Für Dich
TTITLE15=Combox - Schmittchen Schleicher
TTITLE16=QL - Üse Bärnhardiner
TTITLE17=Stromstoss-Örgeler - Rock-Medley
EXTD=
EXTT0=
EXTT1=
EXTT2=
EXTT3=
EXTT4=
EXTT5=
EXTT6=
EXTT7=
EXTT8=
EXTT9=
EXTT10=
EXTT11=
EXTT12=
EXTT13=
EXTT14=
EXTT15=
EXTT16=
EXTT17=
PLAYORDER=
